<svg width="364" height="264" viewBox="0 0 364 264" fill="none" xmlns="http://www.w3.org/2000/svg">
<g clip-path="url(#clip0_1_21)">
<path d="M0.00893411 0.0297701C6.34206 0.041588 12.6781 -0.0647731 19.0083 0.0829506C19.1971 1.65178 19.3593 3.2206 19.5865 4.78352C23.9521 36.095 28.3177 67.4095 32.6893 98.721C32.7866 99.3208 32.7689 99.9767 33.0875 100.517C36.2083 79.5288 39.341 58.5372 42.4618 37.5486C44.2789 25.0335 46.1785 12.5302 48.0988 0.0327246C54.6443 0.0297701 61.1898 -0.0529552 67.7324 0.0740872C66.2487 7.61686 64.9124 15.1921 63.4847 22.7467C60.9185 36.5471 58.2902 50.3327 55.9216 64.1685C53.7034 76.7043 51.4733 89.2431 49.2669 101.782C47.0517 114.876 44.8895 127.979 42.6477 141.07C36.8543 143.31 31.0581 145.535 25.3532 147.996C24.2294 148.359 23.2058 149.092 21.9994 149.157C14.6928 100.739 7.52786 52.3003 0.312759 3.87059C0.0797283 2.60312 -0.0294127 1.31792 0.00893411 0.0297701Z" fill="#3C3C3C"/>
<path d="M70.6378 0.0709184C86.9736 -0.0590785 103.315 0.0472826 119.651 0.0177378C119.645 5.20579 119.574 10.3909 119.571 15.576C118.179 15.9305 116.734 15.771 115.315 15.8537C109.902 15.8833 104.501 16.2467 99.0853 16.226C96.7638 16.3708 94.4365 16.4623 92.1121 16.4505C92.0737 16.6278 92 16.9823 91.9646 17.1596C91.8466 23.8603 91.9646 30.57 91.6401 37.2648C91.649 42.2785 91.528 47.2923 91.5369 52.309C98.749 51.789 105.943 50.9854 113.159 50.5333C113.082 55.166 113.085 59.8015 113.02 64.4341C113.014 65.158 112.899 65.873 112.752 66.582C106.702 67.0548 100.687 67.9322 94.643 68.5202C93.528 68.724 92.3953 68.8038 91.2625 68.7831C90.9292 76.187 90.9912 83.6087 90.8584 91.0215C90.6726 92.9891 90.7699 94.9686 90.7463 96.9422C90.6667 101.362 90.5664 105.782 90.6018 110.202C91.3628 110.161 92.1357 110.122 92.8761 109.898C101.389 108.305 109.905 106.651 118.501 105.569C118.521 109.384 118.427 113.218 118.456 117.042C118.447 118.433 118.512 119.828 118.359 121.213C113.563 121.851 108.808 122.794 104.059 123.725C92.3451 126.008 80.7762 128.981 69.2898 132.198C69.1482 132.189 68.8621 132.168 68.7205 132.16C68.4904 130.57 70.4579 14.2406 70.6378 0.0709184Z" fill="#3C3C3C"/>
<path d="M123.208 0.0649854C130.388 -0.0502391 137.574 0.0443041 144.756 0.0177138C144.78 8.98454 143.624 99.7194 143.898 102.142C143.989 102.367 144.187 102.757 144.5 102.597C145.768 102.302 147.084 102.505 148.367 102.305C150.007 102.003 151.691 102.219 153.331 101.882C156.26 101.885 159.157 101.442 162.089 101.489C162.08 106.512 162.098 111.531 162.033 116.551C159.319 116.519 156.644 116.976 153.93 116.941C152.367 117.272 150.759 117.068 149.193 117.361C141.6 117.951 134.028 118.805 126.477 119.863C124.89 120.002 123.323 120.534 121.728 120.371C121.739 119.455 123.217 7.04936 123.208 0.0649854Z" fill="#3C3C3C"/>
<path d="M188.661 0.0177383C196.315 0.00592041 203.97 0.0266017 211.624 0.00592041C217.07 26.0319 233.541 106.24 236.16 119.603C229.355 119 222.58 117.984 215.766 117.476C211.226 91.9492 206.984 66.3723 202.551 40.8249C201.964 36.9103 201.079 33.0281 200.645 29.0957C200.527 29.1016 200.294 29.1134 200.179 29.1193C199.707 32.9306 198.94 36.7005 198.356 40.494C196.106 54.0757 193.902 67.6663 191.625 81.2481C189.787 92.8266 187.714 104.373 185.882 115.951C181.401 116.09 176.915 115.966 172.431 116.04C169.956 116.332 167.455 116.276 164.965 116.324C167.859 102.089 186.327 10.9404 188.661 0.0177383Z" fill="#3C3C3C"/>
<path d="M237.836 0.0472565C246.744 -0.0236509 255.652 0.0265752 264.561 0.0206662C268.832 0.00884832 273.124 0.514063 277.215 1.77267C282.23 3.19082 286.988 5.94734 290.232 10.0925C293.135 13.6644 294.869 18.0252 296.026 22.4422C297.746 28.9036 298.45 104.845 297.111 109.948C296.088 113.88 294.569 117.881 291.583 120.755C289.171 123.267 285.923 124.871 282.528 125.55C279.233 126.132 275.858 126.174 272.54 125.772C267.165 125.252 261.891 124.002 256.59 123.001C250.88 121.857 245.119 121.012 239.373 120.07C239.181 116.595 237.919 5.94734 237.836 0.0472565ZM259.776 27.2225C259.7 29.2906 260.024 31.347 259.918 33.4151C260.062 39.519 259.909 45.6348 260.219 51.7328C260.242 57.1484 260.316 62.5639 260.36 67.9824C260.72 75.8473 260.428 83.7416 260.809 91.6094C260.826 96.957 260.906 102.308 260.947 107.655C261.809 108.098 262.8 108.027 263.726 108.237C266.331 108.453 269.041 108.958 271.578 108.021C273.413 107.392 274.814 105.841 275.554 104.08C277.041 100.818 276.814 97.152 277.144 93.6657C277.209 88.9533 277.224 84.238 277.053 79.5315C276.967 76.1781 277.139 72.816 276.888 69.4715C276.929 63.855 276.646 58.2445 276.731 52.631C276.528 50.0695 276.61 47.502 276.572 44.9375C276.351 38.7331 276.649 32.4549 275.357 26.3421C274.737 23.0715 273.115 19.7122 270.035 18.1345C266.832 16.5805 263.192 16.3146 259.694 16.1964C259.685 19.8718 259.708 23.5501 259.776 27.2225Z" fill="#3C3C3C"/>
<path d="M317.978 0.0590895C325.656 -0.056135 333.337 0.0590895 341.015 0C342.148 6.47621 343.027 12.9938 344.077 19.4818C346.213 33.0753 348.408 46.66 350.369 60.2801C352.514 74.6507 354.537 89.036 356.599 103.418C359.009 119.94 361.074 136.509 363.304 153.054C363.563 155.281 364.012 157.497 364 159.748C362.499 159.249 361.145 158.369 359.702 157.722C354.912 155.252 349.971 153.098 345.113 150.776C343.307 136.364 341.44 121.958 339.614 107.549C337.862 93.9759 336.222 80.3913 334.302 66.842C333.163 58.4513 332.019 50.0606 330.865 41.6699C330.544 39.7318 330.476 37.7375 329.942 35.8437C326.376 63.6837 322.954 91.5444 319.423 119.39C318.544 126.041 317.81 132.712 316.857 139.351C311.527 137.679 306.264 135.758 300.922 134.11C299.557 133.669 298.161 133.327 296.84 132.765C299.161 118.167 301.489 103.569 303.816 88.971C308.574 59.3406 313.208 29.6895 317.978 0.0590895Z" fill="#3C3C3C"/>
<path d="M223.034 128.277C224.833 126.989 227.382 127.394 229.016 128.771C230.759 130.029 232.367 132.23 234.812 131.637C235.7 130.588 235.774 129.187 235.848 127.884C237.396 127.87 238.948 127.884 240.503 127.873C240.538 129.958 240.612 132.074 240.222 134.133C240.057 136.204 239.385 138.426 237.724 139.782C236.358 140.863 234.388 140.63 232.96 139.803C231.423 138.831 230.214 137.41 228.659 136.473C227.695 136.024 226.208 135.666 225.509 136.721C224.972 137.676 224.887 138.807 224.842 139.883C223.184 139.877 221.527 139.877 219.872 139.883C219.716 137.868 220.043 135.882 220.291 133.894C220.621 131.826 221.273 129.583 223.034 128.277Z" fill="#3C3C3C"/>
<path d="M252.771 147.189C256.534 143.756 262.127 143.135 266.926 144.243C270.49 144.808 273.434 147.422 275.103 150.539C277.015 154.126 277.667 158.212 278.159 162.198C278.321 164.863 278.548 167.525 278.492 170.192C278.495 179.165 278.492 188.141 278.495 197.114C278.554 198.78 278.298 200.434 278.254 202.101C278.233 204.399 277.681 206.645 277.33 208.908C276.678 211.904 275.478 215.086 272.855 216.891C271.366 218.096 269.319 218.33 267.475 218.099C263.788 217.52 260.213 216.108 257.142 213.978C253.481 211.413 250.948 207.496 249.567 203.286C248.508 199.947 247.901 196.458 247.833 192.957C247.476 189.816 247.682 186.649 247.623 183.499C247.535 178.184 247.564 172.869 247.529 167.557C247.367 163.586 247.446 159.562 248.37 155.677C249.024 152.525 250.411 149.431 252.771 147.189ZM261.207 153.872C259.248 154.487 258.263 156.546 258.006 158.448C257.888 159.805 257.614 161.149 257.649 162.514C257.644 168.033 257.703 173.555 257.744 179.074C257.98 180.244 257.838 181.44 257.871 182.625C257.85 187.55 257.947 192.475 257.956 197.403C258.195 199.587 258.295 201.861 259.319 203.859C260.481 206.213 263.222 207.593 265.803 207.245C266.395 206.825 267.015 206.373 267.31 205.685C268.28 203.046 268.36 200.189 268.316 197.409C268.336 189.237 268.31 181.065 268.242 172.893C268.021 168.387 268.49 163.852 267.797 159.373C267.596 157.849 267.26 156.212 266.092 155.113C264.9 153.733 262.885 153.633 261.207 153.872Z" fill="#3C3C3C"/>
<path d="M118.4 144.397C125.981 144.415 133.562 144.409 141.143 144.4C141.167 147.227 141.181 150.055 141.105 152.882C138.314 153.015 135.5 152.729 132.727 153.133C131.303 153.204 129.875 153.187 128.453 153.216C128.427 159.119 128.412 165.025 128.356 170.931C130.406 170.872 132.435 170.52 134.482 170.34C135.712 170.343 136.951 170.34 138.164 170.095C138.234 172.914 138.199 175.741 138.122 178.563C134.792 178.69 131.497 179.227 128.179 179.535C128.052 186.41 128.244 193.296 127.896 200.16C131.078 199.539 134.285 199.04 137.476 198.479C138.594 198.319 139.698 198.021 140.839 198.074C140.765 200.727 140.798 203.386 140.795 206.042C135.999 207.221 131.049 207.794 126.258 209.044C124.17 209.443 122.126 210.037 120.049 210.492C119.324 210.66 118.554 210.722 117.905 211.124C117.822 211.047 117.654 210.89 117.568 210.814C117.619 209.487 118.161 146.696 118.4 144.397Z" fill="#3C3C3C"/>
<path d="M191.663 144.397C195.253 144.282 198.849 144.391 202.442 144.341C202.808 145.348 202.896 146.427 203.103 147.476C205.48 160.079 207.816 172.692 210.211 185.296C211.362 191.766 212.704 198.204 213.775 204.689C211.421 204.568 209.094 204.234 206.748 204.006C205.828 204.012 204.926 203.835 204.035 203.634C202.834 194.942 201.306 186.288 200.017 177.605C199.129 172.269 198.345 166.913 197.439 161.58L196.935 161.793C195.513 172.095 193.829 182.365 192.336 192.658C191.834 195.495 191.528 198.363 191.012 201.2C190.92 201.732 190.908 202.278 190.896 202.822C187.575 202.825 184.254 202.801 180.932 202.801C184.407 183.319 188.138 163.873 191.663 144.397Z" fill="#3C3C3C"/>
<path d="M216.079 144.421C218.373 144.373 220.668 144.447 222.963 144.379C223.724 145.056 223.825 146.122 224.229 147.006C227.456 155.526 230.656 164.05 233.706 172.636C234.532 174.914 235.447 177.168 236.072 179.508C236.258 172.668 235.842 149.269 235.854 144.418C238.68 144.394 241.505 144.412 244.331 144.409C244.561 146.805 245.26 209.768 245.036 210.627C243.34 210.391 241.727 209.765 240.031 209.534C239.34 209.259 238.281 209.41 238.004 208.559C237.249 206.213 236.399 203.897 235.709 201.534C233.385 194.824 231.205 188.055 228.765 181.384C227.698 178.06 226.347 174.825 225.394 171.469L225.158 171.457C225.161 176.852 225.35 200.16 225.524 206.42C223.013 206.243 220.562 205.634 218.067 205.36C217.545 205.224 216.592 205.188 216.645 204.461C216.562 198.954 216.135 149.074 216.079 144.421Z" fill="#3C3C3C"/>
<path d="M85.4279 144.695C90.0797 144.586 94.7374 144.657 99.3921 144.633C100.374 144.707 101.427 144.459 102.36 144.861C102.849 144.923 103.362 144.923 103.82 145.142C107.731 145.706 111.294 148.27 113.035 151.83C114.159 154.147 114.657 156.705 115.014 159.24C115.341 160.907 114.813 192.951 114.855 194.741C114.303 199.666 113.25 204.786 110.227 208.834C109.094 210.444 107.631 211.759 106.109 212.991C101.501 216.315 95.8937 217.63 90.7139 219.754C88.9499 220.398 87.2597 221.264 85.4486 221.751C85.4427 196.065 85.481 170.379 85.4279 144.695ZM95.696 154.439C95.5515 162.845 95.5633 200.449 95.3893 208.187C97.3715 207.632 99.4039 207.082 101.165 205.977C102.194 205.144 103.109 204.119 103.613 202.878C104.654 200.609 104.43 198.053 104.79 195.642C104.893 188.253 105.138 164.99 104.885 162.543C104.914 159.896 104.672 156.832 102.475 155.018C102.044 154.85 101.601 154.705 101.156 154.587C99.3832 154.159 97.5101 154.481 95.696 154.439Z" fill="#3C3C3C"/>
<path d="M144.137 144.749L144.458 144.427C147.762 144.376 151.069 144.376 154.376 144.367C154.393 152.099 154.045 190.271 154.054 196.316C156.886 196.236 159.685 195.701 162.523 195.687C164.024 195.412 165.549 195.391 167.071 195.424C167.065 197.982 167.059 200.541 167.071 203.102C166.732 203.182 166.396 203.268 166.06 203.362C164.874 203.454 163.644 203.256 162.496 203.646C160.514 203.575 158.585 204.045 156.608 204.015C152.759 204.491 148.916 204.984 145.075 205.504C144.55 205.54 144.025 205.537 143.503 205.525C143.568 202.319 144.025 147.52 144.137 144.749Z" fill="#3C3C3C"/>
<path d="M194.244 220.088C196.569 219.517 198.799 218.563 201.153 218.147C199.28 220.785 197.333 223.589 197.056 226.918C196.713 228.085 196.752 229.344 196.345 230.49C196.274 231.078 196.315 231.699 196.062 232.254C195.873 233.336 195.811 234.458 195.469 235.507C195.239 237.185 194.994 238.887 194.575 240.53C194.504 241.118 194.539 241.741 194.289 242.296C194.106 243.381 194.035 244.503 193.699 245.552C193.489 247.334 193.135 249.095 192.773 250.853C192.672 251.751 192.569 252.77 193.147 253.544C193.749 253.828 194.348 254.117 194.955 254.395C194.02 255.048 192.855 255.16 191.805 255.538C189.38 256.215 186.994 257.042 184.546 257.624C182.003 249.366 179.49 241.097 176.882 232.863C176.732 232.304 176.572 231.755 176.422 231.205C175.496 231.188 174.941 231.991 174.814 232.824C174.699 234.414 175.112 235.98 174.994 237.572C175.083 244.365 175.012 251.16 175.077 257.952C175.331 259.229 176.682 259.435 177.773 259.291L177.581 259.71C173.894 260.907 170.157 261.97 166.455 263.131C165.34 263.418 164.269 263.891 163.116 264C163.222 263.374 163.75 262.987 164.163 262.561C165.95 260.797 167.092 258.392 167.375 255.902C167.357 248.601 167.428 241.301 167.387 234.003C167.464 233.028 166.747 232.225 165.977 231.74C164.85 231.046 163.691 230.405 162.505 229.82C162.989 229.344 163.697 229.306 164.31 229.093C167.337 228.198 170.354 227.285 173.375 226.372C173.879 226.242 174.387 226.112 174.841 225.843C174.431 225.131 174.245 224.321 174.13 223.518C176.95 224.038 179.823 224.23 182.64 224.776C182.702 225.196 182.77 225.618 182.914 226.029C183.077 226.623 183.23 227.22 183.404 227.814C183.552 228.192 183.611 228.591 183.69 228.989C183.85 229.365 183.909 229.769 183.982 230.174C184.336 231.244 184.546 232.358 184.858 233.445C185 233.935 185.118 234.438 185.268 234.931C185.342 235.324 185.413 235.729 185.563 236.11C185.64 236.5 185.711 236.902 185.849 237.28C186.012 237.868 186.171 238.459 186.348 239.049C186.472 239.543 186.566 240.057 186.746 240.544C186.823 240.94 186.858 241.363 187.077 241.72C187.094 241.93 187.13 242.344 187.147 242.551H187.41C187.846 238.125 188.495 233.705 189.006 229.279C189.253 228.283 189.194 227.255 189.203 226.242C188.136 224.567 185.911 224.446 184.625 223.078C187.784 221.937 191.056 221.139 194.244 220.088Z" fill="#3C3C3C"/>
</g>
<defs>
<clipPath id="clip0_1_21">
<rect width="364" height="264" fill="white"/>
</clipPath>
</defs>
</svg>
